<svg xmlns="http://www.w3.org/2000/svg" xmlns:xlink="http://www.w3.org/1999/xlink" version="1.1" x="0px" y="0px" viewBox="0 0 100 125" style="enable-background:new 0 0 100 100;" xml:space="preserve"><path d="M18.8896484,29.5859375c0.1728516,0.1254883,0.3798828,0.190918,0.5878906,0.190918  c0.1064453,0,0.2128906-0.0170898,0.3164062-0.0512695l5.4599609-1.8208008l5.4589844,1.8208008  c0.3056641,0.1010742,0.6425781,0.050293,0.9042969-0.1396484c0.2607422-0.1899414,0.4150391-0.4941406,0.4121094-0.8168945  l-0.0439453-5.7548828l3.4189453-4.6298828c0.1914062-0.2597656,0.2460938-0.5961914,0.1464844-0.9033203  s-0.3417969-0.546875-0.6494141-0.6445312l-5.4873047-1.7363281l-3.3466797-4.6816406  c-0.375-0.5253906-1.2519531-0.5253906-1.6269531,0L21.09375,15.1000977l-5.4873047,1.7363281  c-0.3076172,0.0976562-0.5498047,0.3374023-0.6494141,0.6445312s-0.0449219,0.6430664,0.1464844,0.902832l3.4179688,4.6303711  l-0.0439453,5.7548828C18.4746094,29.0917969,18.6289062,29.3959961,18.8896484,29.5859375z M17.5439453,18.3212891  l4.4707031-1.4145508c0.2060547-0.0654297,0.3857422-0.1958008,0.5117188-0.3720703l2.7275391-3.8154297l2.7275391,3.8154297  c0.1259766,0.1762695,0.3056641,0.3066406,0.5117188,0.3720703l4.4707031,1.4145508l-2.7861328,3.7729492  c-0.1279297,0.1743164-0.1972656,0.3852539-0.1953125,0.6020508l0.0361328,4.6894531l-4.4482422-1.4838867  c-0.2050781-0.0683594-0.4277344-0.0683594-0.6328125,0l-4.4492188,1.4838867l0.0361328-4.6894531  c0.0019531-0.2163086-0.0673828-0.4277344-0.1953125-0.6015625L17.5439453,18.3212891z"/><path d="M55.34375,29.7255859c0.3066406,0.1010742,0.6435547,0.050293,0.9042969-0.1396484s0.4150391-0.4941406,0.4121094-0.8168945  l-0.0439453-5.7548828l3.4189453-4.6298828c0.1914062-0.2597656,0.2460938-0.5961914,0.1464844-0.9033203  s-0.3417969-0.546875-0.6494141-0.6445312l-5.4873047-1.7363281l-3.3466797-4.6816406  C50.5107422,10.1557617,50.2080078,10,49.8847656,10s-0.6259766,0.1557617-0.8134766,0.418457l-3.3466797,4.6816406  l-5.4873047,1.7363281c-0.3076172,0.0976562-0.5498047,0.3374023-0.6494141,0.6445312s-0.0449219,0.6430664,0.1464844,0.902832  l3.4179688,4.6303711l-0.0439453,5.7548828c-0.0029297,0.3227539,0.1513672,0.6269531,0.4121094,0.8168945  c0.1728516,0.1254883,0.3798828,0.190918,0.5878906,0.190918c0.1064453,0,0.2128906-0.0170898,0.3164062-0.0512695  l5.4599609-1.8208008L55.34375,29.7255859z M45.1191406,27.3857422l0.0361328-4.6894531  c0.0019531-0.2163086-0.0673828-0.4277344-0.1953125-0.6015625l-2.7851562-3.7734375l4.4707031-1.4145508  c0.2060547-0.0654297,0.3857422-0.1958008,0.5117188-0.3720703l2.7275391-3.8149414l2.7265625,3.8149414  c0.1259766,0.1762695,0.3056641,0.3066406,0.5117188,0.3720703l4.4716797,1.4145508l-2.7861328,3.7729492  c-0.1279297,0.1743164-0.1972656,0.3852539-0.1953125,0.6020508l0.0361328,4.6894531l-4.4482422-1.4838867  c-0.2050781-0.0683594-0.4277344-0.0683594-0.6328125,0L45.1191406,27.3857422z"/><path d="M84.8125,17.480957c-0.0996094-0.3071289-0.3417969-0.546875-0.6494141-0.6445312l-5.4882812-1.7363281L75.328125,10.418457  c-0.375-0.5253906-1.2519531-0.5253906-1.6269531,0l-3.3466797,4.6816406l-5.4873047,1.7363281  c-0.3076172,0.0976562-0.5498047,0.3374023-0.6494141,0.6445312s-0.0449219,0.6435547,0.1464844,0.9033203l3.4189453,4.6298828  l-0.0439453,5.7548828c-0.0029297,0.3227539,0.1513672,0.6269531,0.4121094,0.8168945  c0.2617188,0.1899414,0.5986328,0.2407227,0.9042969,0.1396484l5.4589844-1.8208008l5.4599609,1.8208008  c0.1035156,0.0341797,0.2099609,0.0512695,0.3164062,0.0512695c0.2080078,0,0.4150391-0.0654297,0.5878906-0.190918  c0.2607422-0.1899414,0.4150391-0.4941406,0.4121094-0.8168945l-0.0439453-5.7548828l3.4189453-4.6298828  C84.8574219,18.1245117,84.9121094,17.7880859,84.8125,17.480957z M79.4394531,22.0942383  c-0.1279297,0.1743164-0.1972656,0.3852539-0.1953125,0.6020508l0.0361328,4.6894531l-4.4492188-1.4838867  c-0.1025391-0.0341797-0.2099609-0.0512695-0.3164062-0.0512695s-0.2138672,0.0170898-0.3164062,0.0512695L69.75,27.3857422  l0.0361328-4.6894531c0.0019531-0.2167969-0.0673828-0.4277344-0.1953125-0.6020508l-2.7861328-3.7729492l4.4716797-1.4145508  c0.2060547-0.0654297,0.3857422-0.1958008,0.5117188-0.3720703l2.7265625-3.8149414l2.7275391,3.8149414  c0.1259766,0.1762695,0.3056641,0.3066406,0.5117188,0.3720703l4.4716797,1.4145508L79.4394531,22.0942383z"/><path d="M48.4912109,38.7041016c-0.0996094-0.3071289-0.3417969-0.546875-0.6494141-0.6445312l-5.4873047-1.7358398  l-3.3466797-4.6821289c-0.1875-0.2626953-0.4902344-0.418457-0.8134766-0.418457s-0.6259766,0.1557617-0.8134766,0.418457  l-3.3466797,4.6821289l-5.4882812,1.7358398c-0.3076172,0.0976562-0.5498047,0.3374023-0.6494141,0.6445312  s-0.0449219,0.6435547,0.1464844,0.9033203l3.4189453,4.6298828l-0.0439453,5.7548828  c-0.0029297,0.3227539,0.1513672,0.6269531,0.4121094,0.8168945C32.0029297,50.9345703,32.2099609,51,32.4179688,51  c0.1064453,0,0.2128906-0.0170898,0.3164062-0.0512695l5.4599609-1.8208008l5.4589844,1.8208008  c0.3056641,0.1005859,0.6425781,0.0498047,0.9042969-0.1396484c0.2607422-0.1899414,0.4150391-0.4941406,0.4121094-0.8168945  l-0.0439453-5.7548828l3.4189453-4.6298828C48.5361328,39.3476562,48.5908203,39.0112305,48.4912109,38.7041016z   M43.1181641,43.3173828c-0.1279297,0.1743164-0.1972656,0.3852539-0.1953125,0.6020508l0.0361328,4.6894531L38.5107422,47.125  c-0.2050781-0.0683594-0.4277344-0.0683594-0.6328125,0l-4.4492188,1.4838867l0.0361328-4.6894531  c0.0019531-0.2167969-0.0673828-0.4277344-0.1953125-0.6020508l-2.7861328-3.7729492l4.4716797-1.4140625  c0.2060547-0.0654297,0.3857422-0.1958008,0.5117188-0.3720703l2.7275391-3.8154297l2.7265625,3.8154297  c0.1259766,0.1762695,0.3056641,0.3066406,0.5117188,0.3720703l4.4716797,1.4140625L43.1181641,43.3173828z"/><path d="M72.1064453,38.7041016c-0.0996094-0.3071289-0.3417969-0.546875-0.6494141-0.6445312l-5.4873047-1.7358398  l-3.3466797-4.6821289c-0.375-0.5253906-1.2519531-0.5253906-1.6269531,0l-3.3466797,4.6821289l-5.4873047,1.7358398  c-0.3076172,0.0976562-0.5498047,0.3374023-0.6494141,0.6445312s-0.0449219,0.6430664,0.1464844,0.902832l3.4179688,4.6303711  l-0.0439453,5.7548828c-0.0029297,0.3227539,0.1513672,0.6269531,0.4121094,0.8168945  c0.2617188,0.1894531,0.5986328,0.2402344,0.9042969,0.1396484l5.4599609-1.8208008l5.4599609,1.8208008  C67.3730469,50.9829102,67.4794922,51,67.5859375,51c0.2080078,0,0.4150391-0.0654297,0.5878906-0.190918  c0.2607422-0.1899414,0.4150391-0.4941406,0.4121094-0.8168945l-0.0439453-5.7548828l3.4179688-4.6303711  C72.1513672,39.347168,72.2060547,39.0112305,72.1064453,38.7041016z M66.734375,43.3178711  c-0.1279297,0.1738281-0.1972656,0.3852539-0.1953125,0.6015625l0.0361328,4.6894531L62.1259766,47.125  c-0.1025391-0.0341797-0.2099609-0.0512695-0.3164062-0.0512695S61.5957031,47.0908203,61.4931641,47.125l-4.4492188,1.4838867  l0.0361328-4.6894531c0.0019531-0.2163086-0.0673828-0.4277344-0.1953125-0.6015625l-2.7851562-3.7734375l4.4707031-1.4140625  c0.2060547-0.0654297,0.3857422-0.1958008,0.5117188-0.3720703l2.7275391-3.8154297l2.7275391,3.8154297  c0.1259766,0.1762695,0.3056641,0.3066406,0.5117188,0.3720703l4.4707031,1.4140625L66.734375,43.3178711z"/><path d="M22.3173828,80.2954102c0.5537109,0.6391602,0.8583984,1.456543,0.8583984,2.3017578V89c0,0.5522461,0.4472656,1,1,1  h17.0537109c0.5527344,0,1-0.4477539,1-1V71.7109375c0-1.4726562-0.5732422-2.8574219-1.6152344-3.8989258L28.5683594,55.7670898  c-1.0478516-1.0478516-2.4414062-1.6254883-3.9228516-1.6254883c-1.3125,0-2.5546875,0.4526367-3.5488281,1.2832031V41.8662109  c0-2.9384766-2.1992188-5.4501953-5.0068359-5.7182617C14.5234375,36,12.9697266,36.515625,11.8173828,37.5644531  C10.6621094,38.6142578,10,40.1108398,10,41.6704102v20.6713867c0,2.4116211,0.8701172,4.7436523,2.4492188,6.5673828  L22.3173828,80.2954102z M12,41.6704102c0-0.9975586,0.4238281-1.9545898,1.1621094-2.6264648  c0.7480469-0.6806641,1.7197266-0.9990234,2.7382812-0.9047852c1.7919922,0.1708984,3.1962891,1.8081055,3.1962891,3.7270508  v17.7626953c0,0.0131836,0,0.0263672,0.0009766,0.0395508c0,0.0073242,0,0.0141602,0,0.0214844  c0,1.4819336,0.5771484,2.8754883,1.625,3.9233398l7.6132812,7.6142578c0.390625,0.390625,1.0234375,0.390625,1.4140625,0  c0.390625-0.3901367,0.390625-1.0234375,0-1.4140625l-7.6132812-7.6142578  c-0.6699219-0.6704102-1.0390625-1.5615234-1.0390625-2.5092773s0.3691406-1.8383789,1.0390625-2.5087891  c1.3398438-1.340332,3.6777344-1.3413086,5.0175781,0l12.0458984,12.0449219  c0.6640625,0.6640625,1.0292969,1.5463867,1.0292969,2.4848633V88H25.1757812v-5.402832  c0-1.3261719-0.4785156-2.6088867-1.3466797-3.6113281l-9.8681641-11.3862305C12.6962891,66.1396484,12,64.2724609,12,62.3417969  V41.6704102z"/><path d="M88.1826172,37.5644531c-1.1523438-1.0488281-2.7041016-1.5610352-4.2724609-1.4165039  c-2.8076172,0.2680664-5.0068359,2.7797852-5.0068359,5.7182617v13.5585938  c-0.9941406-0.8305664-2.2363281-1.2832031-3.5488281-1.2832031c-1.4814453,0-2.875,0.5776367-3.9228516,1.6254883  L59.3857422,67.8120117c-1.0419922,1.0415039-1.6152344,2.4262695-1.6152344,3.8989258V89c0,0.5522461,0.4472656,1,1,1h17.0537109  c0.5527344,0,1-0.4477539,1-1v-6.402832c0-0.8452148,0.3046875-1.6625977,0.8583984-2.3017578l9.8681641-11.3862305  C89.1298828,67.0854492,90,64.753418,90,62.3417969V41.6704102C90,40.1108398,89.3378906,38.6142578,88.1826172,37.5644531z   M88,62.3417969c0,1.9306641-0.6962891,3.7978516-1.9609375,5.2578125l-9.8681641,11.3862305  c-0.8681641,1.0024414-1.3466797,2.2851562-1.3466797,3.6113281V88H59.7705078V71.7109375  c0-0.9384766,0.3652344-1.8208008,1.0292969-2.4848633l12.0458984-12.0449219c1.3408203-1.3413086,3.6787109-1.340332,5.0175781,0  c0.6699219,0.6704102,1.0390625,1.5610352,1.0390625,2.5087891s-0.3691406,1.8388672-1.0390625,2.5092773L70.25,69.8134766  c-0.390625,0.390625-0.390625,1.0239258,0,1.4140625c0.390625,0.390625,1.0234375,0.390625,1.4140625,0l7.6132812-7.6142578  c1.0478516-1.0478516,1.625-2.4414062,1.625-3.9233398c0-0.0073242,0-0.0141602,0-0.0214844  c0.0009766-0.0131836,0.0009766-0.0263672,0.0009766-0.0395508V41.8662109c0-1.9189453,1.4042969-3.5561523,3.1962891-3.7270508  c1.0224609-0.09375,1.9902344,0.2241211,2.7382812,0.9047852C87.5761719,39.7158203,88,40.6728516,88,41.6704102V62.3417969z"/></svg>