<svg xmlns="http://www.w3.org/2000/svg" xmlns:xlink="http://www.w3.org/1999/xlink" version="1.1" x="0px" y="0px" viewBox="0 174.3 841.9 1052.375" enable-background="new 0 174.3 841.9 841.9" xml:space="preserve"><path d="M640.6,817c-5.4,0-12.1,1.2-17.2,3c0,0-107.3,32.8-142.9,43.7c-5.9,13.8-29.7,40.4-58.3,34.4c-34.5-7.3-105-28.5-118.9-33.3  c-0.5-0.2-0.9-0.3-1.4-0.4c-1.3-0.4-4.3-1.3-6-2.5c-2.1-1.6-3.5-4.2-3.5-7.1c0-4.9,3.9-8.8,8.8-8.8c0,0,1.1,0.1,1.8,0.2c0,0,0,0,0,0  c0.5,0.1,7.2,2.2,8.6,2.6c0.2,0.1,0.4,0.1,0.7,0.2l101.7,30.4c0.6,0.2,1.5,0.5,2.5,0.8l0.1,0c3.7,1,9.4,2.1,11.5,2.4  c11.8,1.7,22.5-6.7,25.4-16.9c0.6-2.1,0.9-4.4,0.9-6.7c0-0.2,0-0.4,0-0.5c-0.4-9.8-6.8-18.9-16.7-22  c-156.1-61.7-161.4-64.6-187.2-67.3c-12.8-1.3-34.2-1.6-46.5-1.7v0h-38.4v28.9v94.6v28.3c0,0,29.6-0.7,45.8,2.6  c23.4,4.7,53.9,15.1,94.9,35c78,38,92,31.3,190.8-24.1c81.3-45.6,130.8-57.2,150.4-66.8c8.2-4,19.2-13.7,19.2-25.7  C666.9,825.6,655.1,817,640.6,817z"/><path d="M148.2,750.6v179.6c0,6-4.9,10.8-10.8,10.8H98.4v18c0,5.9-4.9,10.8-10.8,10.8H0.4V712.4h87.2c5.9,0,10.8,4.9,10.8,10.8v16.6  h38.9C143.3,739.8,148.2,744.7,148.2,750.6z"/><path d="M197.6,373.6c5.4,0,12.1-1.2,17.2-3c0,0,107.3-32.8,142.9-43.7c5.9-13.8,29.7-40.4,58.3-34.4c34.5,7.3,105,28.5,118.9,33.3  c0.5,0.2,0.9,0.3,1.4,0.4c1.3,0.4,4.3,1.3,6,2.5c2.1,1.6,3.5,4.2,3.5,7.1c0,4.9-3.9,8.8-8.8,8.8c0,0-1.1-0.1-1.8-0.2c0,0,0,0,0,0  c-0.5-0.1-7.2-2.2-8.6-2.6c-0.2-0.1-0.4-0.1-0.7-0.2l-101.7-30.4c-0.6-0.2-1.5-0.5-2.5-0.8l-0.1,0c-3.7-1-9.4-2.1-11.5-2.4  c-11.8-1.7-22.5,6.7-25.4,16.9c-0.6,2.1-0.9,4.4-0.9,6.7c0,0.2,0,0.4,0,0.5c0.4,9.8,6.8,18.9,16.7,22  c156.1,61.7,161.4,64.6,187.2,67.3c12.8,1.3,34.2,1.6,46.5,1.7v0h38.4v-28.9v-94.6v-28.3c0,0-29.6,0.7-45.8-2.6  c-23.4-4.7-53.9-15.1-94.9-35c-78-38-92-31.3-190.8,24.1c-81.3,45.6-130.8,57.2-150.4,66.8c-8.2,4-19.2,13.7-19.2,25.7  C171.3,364.9,183,373.6,197.6,373.6z"/><path d="M839,220.7v257.5h-88.5c-5.9,0-10.8-4.9-10.8-10.8v-16.6h-38.9c-5.9,0-10.8-4.9-10.8-10.8V260.4c0-5.9,4.9-10.8,10.8-10.8  h38.9v-18c0-6,4.9-10.8,10.8-10.8H839z"/><path d="M629.7,585L422.1,444.5c-0.1,0-0.1-0.1-0.2-0.1c-0.2-0.1-0.4-0.2-0.6-0.3c-0.1-0.1-0.3-0.1-0.4-0.2  c-0.2-0.1-0.3-0.1-0.5-0.2c-0.2-0.1-0.3-0.1-0.5-0.2c-0.1,0-0.3-0.1-0.4-0.1c-0.2-0.1-0.4-0.1-0.6-0.2c-0.1,0-0.3-0.1-0.4-0.1  c-0.2,0-0.4-0.1-0.6-0.1c-0.1,0-0.3,0-0.4,0c-0.2,0-0.4,0-0.6,0c-0.2,0-0.3,0-0.5,0c-0.2,0-0.3,0-0.5,0c-0.2,0-0.4,0-0.6,0  c-0.1,0-0.3,0-0.4,0c-0.2,0-0.4,0.1-0.6,0.1c-0.1,0-0.3,0.1-0.4,0.1c-0.2,0-0.4,0.1-0.6,0.2c-0.1,0-0.3,0.1-0.4,0.1  c-0.2,0.1-0.3,0.1-0.5,0.2c-0.2,0.1-0.3,0.1-0.5,0.2c-0.1,0.1-0.3,0.1-0.4,0.2c-0.2,0.1-0.4,0.2-0.6,0.3c-0.1,0-0.1,0.1-0.2,0.1  L202.9,585c-5.1,3.2-6.6,9.9-3.4,15c2.1,3.3,5.6,5.1,9.2,5.1c2,0,4-0.5,5.8-1.7l201.8-136.9l201.8,136.9c1.8,1.1,3.8,1.7,5.8,1.7  c3.6,0,7.2-1.8,9.2-5.1C636.3,594.9,634.8,588.2,629.7,585z"/><path d="M461.8,608.2h-91c-8.8,0.6-15.9,8-15.9,15.1v89.1c0,11.4,7.7,19.1,17.1,19.1h88.6c9.4,0,17.1-7.7,17.1-17.1v-89.1  C477.7,616.2,470.6,608.8,461.8,608.2z M428.7,704.2h-24.9l5.2-37.6c-4.2-2.5-7-7-7-12.2c0-7.9,6.4-14.3,14.3-14.3  c7.9,0,14.3,6.4,14.3,14.3c0,5.2-2.8,9.8-7,12.2L428.7,704.2z M391.6,581.1c0-13.6,11.1-24.7,24.7-24.7c13.6,0,24.7,11.1,24.7,24.7  v21.2h19.8v-21.2c0-24.6-20-44.5-44.5-44.5c-24.6,0-44.5,20-44.5,44.5v21.2h19.8V581.1z"/></svg>