<svg xmlns="http://www.w3.org/2000/svg" xmlns:xlink="http://www.w3.org/1999/xlink" version="1.1" x="0px" y="0px" viewBox="0 0 32 40" style="enable-background:new 0 0 32 32;" xml:space="preserve"><g><path d="M22.09,9.51c-0.4-2.68-2.65-4.85-5.35-5.17c-1.79-0.21-3.51,0.33-4.84,1.51c-1.31,1.17-2.07,2.85-2.07,4.6   c0,1.35,0.43,2.64,1.25,3.71c1.33,1.76,2.83,3.87,3.82,6.19l0.86,2.01c0.04,0.09,0.13,0.15,0.23,0.15s0.19-0.06,0.23-0.15   l0.06-0.13c1.32-3.08,3.18-5.92,4.82-8.33C21.97,12.63,22.32,11.07,22.09,9.51z M16,21.65l-0.63-1.48   c-1.02-2.38-2.54-4.52-3.88-6.3c-0.75-0.99-1.14-2.17-1.14-3.41c0-1.61,0.69-3.16,1.9-4.23c1.22-1.09,2.8-1.58,4.45-1.39   c2.48,0.29,4.54,2.29,4.91,4.75c0.21,1.43-0.11,2.87-0.91,4.05C19.11,15.96,17.33,18.68,16,21.65z"/><path d="M16,6.52c-2.17,0-3.94,1.77-3.94,3.94S13.83,14.4,16,14.4s3.94-1.77,3.94-3.94S18.17,6.52,16,6.52z M16,13.9   c-1.9,0-3.44-1.54-3.44-3.44S14.1,7.02,16,7.02s3.44,1.54,3.44,3.44S17.9,13.9,16,13.9z"/><path d="M25.1,17.02c-0.04-0.1-0.13-0.17-0.24-0.17H20c-0.14,0-0.25,0.11-0.25,0.25c0,0.14,0.11,0.25,0.25,0.25h4.69l3.52,9.84H3.8   l3.52-9.84H12c0.14,0,0.25-0.11,0.25-0.25c0-0.14-0.11-0.25-0.25-0.25H7.13c-0.11,0-0.2,0.07-0.24,0.17L3.21,27.37   c-0.03,0.08-0.02,0.16,0.03,0.23c0.05,0.07,0.12,0.11,0.2,0.11h25.12c0.08,0,0.16-0.04,0.2-0.11c0.05-0.07,0.06-0.15,0.03-0.23   L25.1,17.02z"/><path d="M8.24,20.08c0.04-0.13-0.03-0.27-0.16-0.32c-0.13-0.04-0.27,0.03-0.32,0.16l-2,6c0,0.01,0.01,0.03,0,0.04   c0,0.01-0.02,0.02-0.02,0.04c0,0.02,0.02,0.03,0.02,0.05c0.01,0.03,0.02,0.06,0.04,0.08c0.02,0.03,0.04,0.04,0.07,0.06   c0.02,0.01,0.02,0.03,0.04,0.04c0.03,0.01,0.05,0.01,0.08,0.01h18c0.14,0,0.25-0.11,0.25-0.25s-0.11-0.25-0.25-0.25H6.35   L8.24,20.08z"/><path d="M26,26.25c0.14,0,0.25-0.11,0.25-0.25s-0.11-0.25-0.25-0.25h-1c-0.14,0-0.25,0.11-0.25,0.25s0.11,0.25,0.25,0.25H26z"/><path d="M20.5,23.75h-9c-0.14,0-0.25,0.11-0.25,0.25s0.11,0.25,0.25,0.25h9c0.14,0,0.25-0.11,0.25-0.25S20.64,23.75,20.5,23.75z"/><path d="M22,24.25c0.02,0,0.04,0,0.06-0.01c0.13-0.03,0.22-0.17,0.18-0.3l-1-4c-0.03-0.13-0.17-0.22-0.3-0.18   c-0.13,0.03-0.22,0.17-0.18,0.3l1,4C21.79,24.17,21.89,24.25,22,24.25z"/><path d="M10,24.25c0.11,0,0.21-0.08,0.24-0.19l1-4c0.03-0.13-0.05-0.27-0.18-0.3c-0.14-0.04-0.27,0.05-0.3,0.18l-1,4   c-0.03,0.13,0.05,0.27,0.18,0.3C9.96,24.25,9.98,24.25,10,24.25z"/></g></svg>