<svg xmlns="http://www.w3.org/2000/svg" data-name="Layer 1" viewBox="0 0 100 125" x="0px" y="0px"><title>B__59</title><path d="M48.95081,8.12054a7.66008,7.66008,0,0,0-5.22474-2.24987l-31.36474-.868a7.165,7.165,0,0,0-7.35864,7.36005l.868,31.36194a7.66045,7.66045,0,0,0,2.24988,5.2262L51.9209,92.75116a7.7,7.7,0,0,0,10.87646,0L92.75122,62.7973a7.69989,7.69989,0,0,0,0-10.8764ZM89.21558,59.2616,59.2616,89.21545a2.6937,2.6937,0,0,1-3.80506,0L11.65625,45.4151a2.6815,2.6815,0,0,1-.78723-1.82861l-.868-31.36194A2.16485,2.16485,0,0,1,12.22314,10.001l31.36475.868a2.67956,2.67956,0,0,1,1.82715.78723L89.21558,55.4566A2.694,2.694,0,0,1,89.21558,59.2616Zm-68.841-38.89118a9.85394,9.85394,0,1,0,13.93555,0A9.86451,9.86451,0,0,0,20.37463,20.37042ZM31.48169,31.47748a5.85381,5.85381,0,1,1,0-8.27851A5.86067,5.86067,0,0,1,31.48169,31.47748ZM78.13208,52.6767a2.00007,2.00007,0,0,1,0,2.82843L55.50464,78.13257a2,2,0,0,1-2.82837-2.82843L75.30371,52.6767A2,2,0,0,1,78.13208,52.6767Zm-8.48535-5.65686L47.01929,69.64728a2,2,0,1,1-2.82837-2.82843L66.81836,44.19141a2,2,0,0,1,2.82837,2.82843Z"/></svg>