<svg xmlns="http://www.w3.org/2000/svg" xmlns:xlink="http://www.w3.org/1999/xlink" version="1.1" x="0px" y="0px" viewBox="0 0 96 120" style="enable-background:new 0 0 96 96;" xml:space="preserve"><style type="text/css">
	.st0{fill-rule:evenodd;clip-rule:evenodd;}
</style><path class="st0" d="M70.941,22.731c1.223,0,2.218,0.995,2.218,2.22c0,1.223-0.995,2.22-2.218,2.22c-1.224,0-2.222-0.997-2.222-2.22  C68.72,23.726,69.717,22.731,70.941,22.731L70.941,22.731z M70.941,30.015c2.791,0,5.062-2.271,5.062-5.064  c0-2.792-2.271-5.063-5.062-5.063c-2.792,0-5.065,2.271-5.065,5.063C65.877,27.744,68.149,30.015,70.941,30.015L70.941,30.015z   M79.478,61.566c0.21,1.717-0.25,3.283-1.329,4.529c-1.269,1.465-3.376,2.451-5.775,2.726v1.808c0,0.785-0.636,1.422-1.422,1.422  c-0.786,0-1.422-0.636-1.422-1.422V68.8c-3.551-0.487-6.313-2.733-7.111-5.94c-0.189-0.762,0.274-1.533,1.035-1.724  c0.763-0.188,1.534,0.273,1.724,1.036c0.736,2.954,3.71,3.939,6.033,3.882c1.994-0.048,3.873-0.761,4.788-1.818  c0.554-0.641,0.77-1.403,0.657-2.327c-0.265-2.186-2.088-3.441-5.913-4.068c-6.088-1.001-7.504-4.086-7.621-6.5  c-0.162-3.345,2.179-6.148,5.826-6.975c0.192-0.043,0.385-0.08,0.582-0.111v-1.849c0-0.785,0.636-1.422,1.422-1.422  c0.785,0,1.422,0.636,1.422,1.422v1.836c2.604,0.386,5.172,1.895,6.456,4.95c0.303,0.724-0.038,1.557-0.76,1.861  c-0.726,0.305-1.559-0.036-1.863-0.761c-1.233-2.936-4.218-3.698-6.63-3.152c-1.824,0.413-3.728,1.699-3.615,4.063  c0.037,0.741,0.145,2.995,5.241,3.831C73.093,55.344,78.839,56.288,79.478,61.566L79.478,61.566z M88.163,80.807  c1.375,0,2.493-1.119,2.493-2.495l-0.02-47.835c0-0.746-0.27-1.354-0.826-1.854L75.979,16.189c-1.894-1.703-3.355-2.396-5.038-2.396  c-0.003,0-0.003,0-0.004,0c-1.685,0-3.144,0.695-5.039,2.4L52.075,28.636c-0.556,0.502-0.827,1.108-0.827,1.856l0.008,15.971h1.687  c3.152,0,5.716,2.565,5.716,5.715c0,1.25-0.404,2.407-1.086,3.349c2.02,0.883,3.436,2.9,3.436,5.241c0,2.092-1.13,3.926-2.811,4.921  c0.831,0.994,1.334,2.274,1.334,3.669c0,3.006-2.332,5.477-5.282,5.7c0.5,0.848,0.785,1.836,0.785,2.89  c0,1.046-0.284,2.027-0.777,2.871L88.163,80.807L88.163,80.807z M30.443,80.82c-4.921,0-8.18-1.217-11.332-2.394  c-0.951-0.356-1.926-0.72-2.936-1.045V53.696l0.137-0.002c2.485-0.022,4.434-1.031,5.796-3c0.263-0.382,0.5-0.726,0.713-1.039  c1.911-2.789,1.911-2.789,4.853-4.709c5.68-3.713,6.098-5.559,7.861-13.321c0.027-0.116,0.054-0.231,0.08-0.35  c1.171,0.622,1.97,1.635,2.427,3.068c1.342,4.212-0.775,10.7-2.43,12.61c-0.364,0.421-0.449,1.015-0.218,1.521  c0.23,0.507,0.737,0.833,1.294,0.833h16.256c1.584,0,2.872,1.289,2.872,2.872c0,1.584-1.288,2.875-2.872,2.875H41.734  c-0.785,0-1.421,0.636-1.421,1.421c0,0.784,0.636,1.422,1.421,1.422H55.29c1.584,0,2.874,1.289,2.874,2.872  c0,1.584-1.29,2.872-2.874,2.872H41.734c-0.785,0-1.421,0.638-1.421,1.422c0,0.785,0.636,1.422,1.421,1.422h12.081  c1.584,0,2.872,1.29,2.872,2.874c0,1.584-1.289,2.872-2.872,2.872H41.734c-0.785,0-1.421,0.638-1.421,1.422  c0,0.785,0.636,1.422,1.421,1.422h7.584c1.584,0,2.872,1.289,2.872,2.874c0,1.584-1.289,2.871-2.872,2.871H30.443L30.443,80.82z   M13.331,81.839c0,0.201-0.169,0.368-0.368,0.368H5.712c-0.2,0-0.368-0.167-0.368-0.368V50.511c0-0.199,0.168-0.368,0.368-0.368  h7.251c0.199,0,0.368,0.169,0.368,0.368V81.839L13.331,81.839z M93.481,30.477c0-1.557-0.614-2.929-1.771-3.969L77.879,14.076  c-1.72-1.546-3.889-3.126-6.939-3.126c-0.003,0-0.004,0-0.004,0c-3.052,0-5.222,1.582-6.94,3.13L50.172,26.522  c-1.157,1.042-1.766,2.414-1.766,3.971l0.007,15.97h-9.18c1.66-3.452,2.819-8.901,1.518-12.983  c-0.914-2.872-2.929-4.765-5.824-5.477c-0.37-0.09-0.761-0.028-1.084,0.17c-0.323,0.2-0.554,0.521-0.639,0.893  c-0.158,0.684-0.304,1.326-0.441,1.93c-1.708,7.519-1.927,8.487-6.644,11.571c-3.332,2.177-3.57,2.458-5.643,5.483  c-0.212,0.307-0.444,0.649-0.706,1.027c-0.838,1.214-1.912,1.761-3.473,1.774l-0.12,0.002v-0.341c0-1.771-1.442-3.212-3.212-3.212  H5.712c-1.771,0-3.212,1.441-3.212,3.212v31.327c0,1.772,1.441,3.212,3.212,3.212h7.251c1.77,0,3.212-1.44,3.212-3.212v-1.457  c0.641,0.224,1.281,0.462,1.94,0.709c3.232,1.207,6.893,2.573,12.328,2.573h18.876c0.804,0,1.57-0.167,2.264-0.469  c0.683,0.308,1.422,0.469,2.181,0.469c0,0,0,0,0.002,0l34.399-0.012c2.944,0,5.337-2.396,5.336-5.34L93.481,30.477z"/></svg>