<svg xmlns="http://www.w3.org/2000/svg" data-name="Layer 1" viewBox="0 0 64 80" x="0px" y="0px"><rect x="9" y="32" width="5" height="2"/><rect x="6" y="38" width="5" height="2"/><rect x="9" y="44" width="5" height="2"/><path d="M26.92,32.434l-2.518-.36a2.85,2.85,0,0,0-2.363.739L16.132,38.3a1,1,0,0,0-.1,1.358L17.906,42a1,1,0,0,0,1.422.143l5.2-4.331,1.142.381-2.932,5.276a3.812,3.812,0,0,0-.428,2.434l-2.33,3.882L13,50.221a1,1,0,0,0-.938,1V54.5a1,1,0,0,0,1,1h8.513A2.885,2.885,0,0,0,23.759,54.5l3.157-3.682,2.857,2.222L28.02,61.8A1,1,0,0,0,29,63h3.281a1,1,0,0,0,.953-.7L36.129,53.2a2.855,2.855,0,0,0-.893-3.083l-4.021-3.351,1.293-2.32L34.1,46.671a2.871,2.871,0,0,0,2.7,1.183l6.391-.8a1,1,0,0,0,.875-.993V43.25a1,1,0,0,0-1-1H38.114l-.742-1.857a10.423,10.423,0,0,0-2.991-4.117l-.027-.022c.091.006.178.027.271.027a4.3,4.3,0,1,0-3.961-2.671A12.252,12.252,0,0,0,26.92,32.434ZM22.243,53.19a.9.9,0,0,1-.668.31H14.062V52.158l6.563-.41a1,1,0,0,0,.8-.483l1.954-3.26a3.673,3.673,0,0,0,.353.328l1.608,1.251ZM34.625,29.719A2.281,2.281,0,1,1,32.344,32,2.283,2.283,0,0,1,34.625,29.719Zm-2.876,6.967L33.1,37.813a8.4,8.4,0,0,1,2.414,3.323l.994,2.486a1,1,0,0,0,.928.628h4.625v.93l-5.514.689a.885.885,0,0,1-.821-.36l-2.51-3.515a1,1,0,0,0-1.687.094l-2.466,4.425a1,1,0,0,0,.234,1.256l4.656,3.878a.878.878,0,0,1,.271.938L31.55,61H30.22l1.635-8.179a1,1,0,0,0-.366-.986l-6.534-5.08a1.811,1.811,0,0,1-.472-2.316L28,38.111a1,1,0,0,0-.558-1.435l-2.812-.937a1,1,0,0,0-.957.18l-4.841,4.035-.657-.822L23.4,34.278a.874.874,0,0,1,.718-.224l2.518.36A10.242,10.242,0,0,1,31.749,36.686Z"/><path d="M3,12H25V29h2V11a1,1,0,0,0-1-1H2a1,1,0,0,0-1,1V63H3Z"/><path d="M45,5.667l6.5,8.665L49.2,17.4l1.6,1.2L56,11.667,61.2,18.6l1.6-1.2-6-8a1.036,1.036,0,0,0-1.6,0l-2.449,3.265L45.8,3.4a1.036,1.036,0,0,0-1.6,0l-9,12,1.6,1.2Z"/><path d="M58.531,22.153a1,1,0,0,0-1.062,0c-.3.19-2.969,1.93-2.969,4.347A4.418,4.418,0,0,0,57,30.8V34h2V30.8a4.417,4.417,0,0,0,2.5-4.3C61.5,24.083,58.835,22.343,58.531,22.153ZM58,29c-.71,0-1.5-1.027-1.5-2.5A3.592,3.592,0,0,1,58,24.237,3.564,3.564,0,0,1,59.5,26.5C59.5,27.973,58.71,29,58,29Z"/><path d="M50.531,22.153a1,1,0,0,0-1.062,0c-.3.19-2.969,1.93-2.969,4.347A4.418,4.418,0,0,0,49,30.8V34h2V30.8a4.417,4.417,0,0,0,2.5-4.3C53.5,24.083,50.835,22.343,50.531,22.153ZM50,29c-.71,0-1.5-1.027-1.5-2.5A3.592,3.592,0,0,1,50,24.237,3.564,3.564,0,0,1,51.5,26.5C51.5,27.973,50.71,29,50,29Z"/><path d="M60,7a3,3,0,1,0-3-3A3,3,0,0,0,60,7Zm0-4a1,1,0,1,1-1,1A1,1,0,0,1,60,3Z"/><path d="M21,25V15a1,1,0,0,0-1-1H8a1,1,0,0,0-1,1V25a1,1,0,0,0,1,1H20A1,1,0,0,0,21,25Zm-8-1H9V21h4Zm0-5H9V16h4Zm6,5H15V21h4Zm0-5H15V16h4Z"/><path d="M46.2,59.224c.7-.187,1.377-.4,2-.625l-.687-1.878c-.566.206-1.18.4-1.825.571Z"/><path d="M51.134,47.5l1.67-1.1a7.863,7.863,0,0,1-.823-1.566l-1.875.7A9.888,9.888,0,0,0,51.134,47.5Z"/><path d="M54.554,52.77,52.6,52.364A3.862,3.862,0,0,1,51.96,53.8L53.6,54.954A5.855,5.855,0,0,0,54.554,52.77Z"/><path d="M53.866,48.268l-1.814.84a6.99,6.99,0,0,1,.545,1.654l1.966-.358A8.876,8.876,0,0,0,53.866,48.268Z"/><path d="M56.936,39.7c.587-.137,1.224-.257,1.89-.357l-.3-1.977c-.718.108-1.407.238-2.047.386Z"/><path d="M49.733,43.145l1.994.165a2.368,2.368,0,0,1,.517-1.289l-1.578-1.229A4.368,4.368,0,0,0,49.733,43.145Z"/><path d="M52.456,39.263l1.027,1.716a9.31,9.31,0,0,1,1.64-.754l-.674-1.883A11.327,11.327,0,0,0,52.456,39.263Z"/><path d="M50.15,57.754A11.682,11.682,0,0,0,52,56.592l-1.227-1.579a9.786,9.786,0,0,1-1.535.962Z"/><path d="M43.8,57.719c-1.117.211-1.888.284-1.9.285L42.093,60c.034,0,.864-.082,2.081-.312Z"/><path d="M62.651,37.005c-.4.01-1.143.038-2.068.119l.174,1.992c.868-.076,1.563-.1,1.941-.112Z"/><text x="0" y="79" fill="#000000" font-size="5px" font-weight="bold" font-family="'Helvetica Neue', Helvetica, Arial-Unicode, Arial, Sans-serif">Created by Kamin Ginkaew</text><text x="0" y="84" fill="#000000" font-size="5px" font-weight="bold" font-family="'Helvetica Neue', Helvetica, Arial-Unicode, Arial, Sans-serif">from the Noun Project</text></svg>