<svg xmlns="http://www.w3.org/2000/svg" xmlns:xlink="http://www.w3.org/1999/xlink" version="1.1" x="0px" y="0px" viewBox="0 0 80 100" enable-background="new 0 0 80 80" xml:space="preserve"><g><path fill="#000000" d="M71,64H9c-2.2,0-4-1.8-4-4V16c0-2.2,1.8-4,4-4h62c2.2,0,4,1.8,4,4v44C75,62.2,73.2,64,71,64z M9,14   c-1.1,0-2,0.9-2,2v44c0,1.1,0.9,2,2,2h62c1.1,0,2-0.9,2-2V16c0-1.1-0.9-2-2-2H9z"/></g><g><path fill="#000000" d="M66,58H14c-1.7,0-3-1.3-3-3V21c0-1.7,1.3-3,3-3h52c1.7,0,3,1.3,3,3v6h-2v-6c0-0.6-0.4-1-1-1H14   c-0.6,0-1,0.4-1,1v34c0,0.6,0.4,1,1,1h52c0.6,0,1-0.4,1-1v-5h2v5C69,56.7,67.7,58,66,58z"/></g><g><g><path fill="#000000" d="M31,49c-6.1,0-11-4.9-11-11s4.9-11,11-11s11,4.9,11,11S37.1,49,31,49z M31,29c-5,0-9,4-9,9s4,9,9,9    s9-4,9-9S36,29,31,29z"/></g><g><path fill="#000000" d="M31,43c-2.8,0-5-2.2-5-5s2.2-5,5-5s5,2.2,5,5S33.8,43,31,43z M31,35c-1.7,0-3,1.3-3,3s1.3,3,3,3s3-1.3,3-3    S32.7,35,31,35z"/></g><g><g><rect x="21" y="37" fill="#000000" width="3" height="2"/></g><g><rect x="38" y="37" fill="#000000" width="3" height="2"/></g></g><g><rect x="30" y="28" fill="#000000" width="2" height="3"/></g><g><rect x="30" y="45" fill="#000000" width="2" height="3"/></g><g><g><rect x="23.5" y="31" transform="matrix(0.7071 0.7071 -0.7071 0.7071 29.9393 -8.3007)" fill="#000000" width="3" height="2"/></g><g><rect x="35.5" y="43" transform="matrix(0.7071 0.7071 -0.7071 0.7071 41.9602 -13.28)" fill="#000000" width="3" height="2"/></g></g><g><g><rect x="36" y="30.5" transform="matrix(0.7071 0.7071 -0.7071 0.7071 33.4601 -16.8009)" fill="#000000" width="2" height="3"/></g><g><rect x="24" y="42.5" transform="matrix(0.7071 0.7071 -0.7071 0.7071 38.4394 -4.7799)" fill="#000000" width="2" height="3"/></g></g></g><g><path fill="#000000" d="M71,34h-6v-8h6V34z M67,32h2v-4h-2V32z"/></g><g><path fill="#000000" d="M71,50h-6v-8h6V50z M67,48h2v-4h-2V48z"/></g><g><rect x="67" y="33" fill="#000000" width="2" height="10"/></g><g><path fill="#000000" d="M17,68c-2.2,0-4-1.8-4-4v-2h8v2C21,66.2,19.2,68,17,68z M15,64c0,1.1,0.9,2,2,2s2-0.9,2-2H15z"/></g><g><path fill="#000000" d="M63,68c-2.2,0-4-1.8-4-4v-2h8v2C67,66.2,65.2,68,63,68z M61,64c0,1.1,0.9,2,2,2s2-0.9,2-2H61z"/></g></svg>