<svg xmlns="http://www.w3.org/2000/svg" viewBox="0 0 32 40" x="0px" y="0px"><title>silent, bell, notification, notif</title><g data-name="Layer 2"><path d="M5.874,26.419,4.236,28.354a1,1,0,0,0,1.527,1.292l2.7-3.184h3.123a4.529,4.529,0,0,0,8.838,0h5.312a2.774,2.774,0,0,0,2.64-3.621,2.818,2.818,0,0,0-2.525-1.911V14.846A9.771,9.771,0,0,0,23.59,8.578l4.173-4.932a1,1,0,0,0-1.527-1.292L22.162,7.169A9.859,9.859,0,0,0,18.719,5.4a2.765,2.765,0,0,0,.074-.6,2.793,2.793,0,1,0-5.513.6,10.109,10.109,0,0,0-7.126,9.727V20.93a2.836,2.836,0,0,0-2.617,2.3,2.747,2.747,0,0,0,2.337,3.184ZM16,28a2.542,2.542,0,0,1-2.332-1.538h4.664A2.542,2.542,0,0,1,16,28Zm6.268-17.859a7.78,7.78,0,0,1,1.578,4.705v6.288a1.792,1.792,0,0,0,1.79,1.789.84.84,0,0,1,.823.5.792.792,0,0,1-.109.722.763.763,0,0,1-.619.313H10.15ZM16,4a.794.794,0,0,1,.793.793.772.772,0,0,1-.043.25A9.931,9.931,0,0,0,15.3,5.025c-.018,0-.034,0-.052.006a.785.785,0,0,1-.037-.238A.794.794,0,0,1,16,4ZM5.511,23.556a.842.842,0,0,1,.853-.633,1.792,1.792,0,0,0,1.79-1.789V15.121a8.014,8.014,0,0,1,7.281-8.1C15.62,7.007,15.8,7,15.988,7a7.86,7.86,0,0,1,4.879,1.7L7.53,24.462H6.269a.771.771,0,0,1-.758-.906Z"/></g></svg>