<svg xmlns="http://www.w3.org/2000/svg" xmlns:xlink="http://www.w3.org/1999/xlink" version="1.1" x="0px" y="0px" viewBox="0 0 60 75" enable-background="new 0 0 60 60" xml:space="preserve"><path d="M53.1279297,21.6171875c-0.1879883-0.7158203-0.5151367-1.3076172-0.9462891-1.7753906  c1.5644531-2.5253906,3.1733398-7.6025391-0.8232422-10.8720703c-2.4301758-1.9902344-5.5292969-2.5957031-8.3012695-1.6347656  c-0.9140625,0.3203125-1.7324219,0.7871094-2.4301758,1.3701172c-1.4765625-1.0166016-4.2963867-2.1171875-7.0351563-0.8876953  c-0.1235352-0.6484375-0.3393555-1.2939453-0.7163086-1.9042969c-1.2783203-2.0644531-3.8808594-3.1230469-7.7338867-3.1455078  c-0.0439453,0-0.0869141,0-0.1298828,0c-3.7836914,0-6.5678711,0.9814453-8.2744141,2.921875  c-0.890625,1.0117188-1.8554688,2.7158203-1.8193359,5.3876953c-1.1884766-0.2617188-2.9311523-0.4111328-4.527832,0.3515625  c-1.5512695,0.7441406-2.6196289,2.1621094-3.1762695,4.2158203c-0.5820313,2.1474609-0.3759766,3.890625,0.6123047,5.1796875  c0.3989258,0.5195313,0.8852539,0.9013672,1.3886719,1.1875c-0.3530273,0.5146484-0.7856445,1.3339844-0.8989258,2.3046875  c-1.0512695,0.0908203-3.7324219,0.4814453-5.3041992,2.5c-1.206543,1.5498047-1.4853516,3.6386719-0.8291016,6.2080078  c0.6176758,2.4160156,1.8657227,4.0742188,3.7099609,4.921875c0.9980469,0.4609375,2.065918,0.6289063,3.09375,0.6289063  c0.6040039,0,1.1884766-0.0634766,1.7421875-0.1542969c0.6484375,1.4042969,2.8046875,5.1220703,7.5805664,5.3427734  c0.2451172,0.0136719,0.4824219,0.0166016,0.7128906,0.0166016c3.1513672,0,4.9438477-1.0205078,5.9829102-2.078125  c0.0039063,0.0214844,0.0097656,0.0585938,0.0112305,0.0722656c-0.0688477,1.8134766-1.6152344,12.4804688-4.621582,13.5429688  H10.3720703c-0.5292969,0-0.9570313,0.4277344-0.9570313,0.9570313c0,0.5302734,0.4277344,0.9580078,0.9570313,0.9580078h36.2314453  c0.5288086,0,0.9570313-0.4277344,0.9570313-0.9580078c0-0.5292969-0.4282227-0.9570313-0.9570313-0.9570313h-10.409668  c-0.5332031-0.453125-2.6811523-2.9179688-1.9858398-12.7822266l1.8515625-2.1494141  c0.3300781,0.7089844,0.8837891,1.5537109,1.831543,2.2529297c1.2314453,0.9121094,2.8139648,1.3701172,4.7402344,1.3701172  c0.8530273,0,1.7729492-0.0888672,2.7612305-0.2685547c0.1186523-0.0302734,2.7211914-0.6796875,4.0161133-2.6542969  c0.7290039-0.0830078,1.9594727-0.3818359,3.0209961-1.4199219c1.2905273-1.2646484,1.9384766-3.2021484,1.9287109-5.7646484  c1.6962891-0.8916016,4.0507813-3.0566406,3.7841797-6.5800781C57.8364258,23.2783203,55.0366211,21.8828125,53.1279297,21.6171875z   M32.3442383,41.7626953l-0.0229492,0.3144531c-0.5703125,7.5537109,0.4223633,11.3408203,1.4736328,13.2402344H23.1953125  c2.9824219-4.1650391,3.7363281-13.4140625,3.7363281-13.5263672c0-0.4638672-1.2895508-6.7109375-2.4204102-12.1015625  c0.7680664-0.5537109,1.2636719-1.2001953,1.5385742-1.8818359c0.4516602,0.2226563,1.0405273,0.4326172,1.7075195,0.5087891  l1.0947266,9.75c0.0405273,0.3554688,0.2744141,0.6591797,0.6064453,0.7861328  c0.1123047,0.0449219,0.2294922,0.0654297,0.3457031,0.0654297c0.2285156,0,0.4536133-0.0820313,0.6318359-0.2373047  l7.0068359-6.1445313c0.2592773,0.3896484,0.5688477,0.7802734,0.9521484,1.1640625  c0.1665039,0.1660156,0.3354492,0.3115234,0.5048828,0.453125L32.3442383,41.7626953z M53.0458984,32.3974609  c-0.3867188,0.1474609-0.6352539,0.5253906-0.6162109,0.9394531c0.1015625,2.3007813-0.3413086,3.9628906-1.3178711,4.9375  c-0.9726563,0.9726563-2.1655273,0.9335938-2.2119141,0.9267578c-0.3852539-0.0419922-0.7563477,0.1884766-0.9257813,0.5400391  c-0.7412109,1.5439453-2.9882813,2.1240234-2.9794922,2.1240234c-2.6025391,0.4746094-4.6010742,0.2255859-5.9355469-0.7451172  c-1.2866211-0.9335938-1.5288086-2.2314453-1.5571289-2.4082031l3.0493164-3.5400391  c0.9169922,0.3916016,1.8178711,0.5332031,2.6113281,0.5332031c1.5356445,0,2.6738281-0.4912109,2.7626953-0.5302734  c0.4814453-0.2128906,0.6977539-0.7753906,0.4853516-1.2587891c-0.2109375-0.4814453-0.7758789-0.7050781-1.2587891-0.4931641  c-0.1235352,0.0566406-3.0478516,1.2792969-5.402832-1.0771484c-2.3481445-2.3486328-1.2084961-5.0449219-1.1582031-5.1591797  c0.2138672-0.4804688,0.0009766-1.0429688-0.4799805-1.2597656c-0.4824219-0.2177734-1.0498047-0.0039063-1.2670898,0.4765625  c-0.0517578,0.1123047-0.8886719,2.0410156-0.2402344,4.3203125l-6.0522461,5.3085938l-0.8911133-7.9316406  c0.0473633-0.0175781,0.0922852-0.0224609,0.1396484-0.0419922c2.3276367-0.9277344,3.0375977-2.0917969,3.0375977-4.9804688  c0-0.5292969-0.4282227-0.9580078-0.9580078-0.9580078c-0.5288086,0-0.9575195,0.4287109-0.9575195,0.9580078  c0,2.2285156-0.3706055,2.6201172-1.8310547,3.1992188c-1.2753906,0.5117188-2.5332031-0.3583984-2.746582-0.515625  c-0.0512695-0.6728516-0.2138672-1.2861328-0.4189453-1.7275391c-0.2211914-0.4814453-0.7885742-0.6875-1.2641602-0.4667969  c-0.4799805,0.2177734-0.6914063,0.7861328-0.4760742,1.2646484c0.1831055,0.4101563,0.9790039,2.5048828-1.3295898,3.6513672  c-2.4150391,1.203125-3.5771484-0.3261719-3.7084961-0.5146484c-0.2944336-0.4335938-0.8852539-0.5556641-1.3217773-0.2617188  c-0.4418945,0.2910156-0.5625,0.8867188-0.2709961,1.328125c0.5117188,0.7724609,1.7641602,1.8212891,3.5766602,1.8212891  c0.4907227,0,1.0366211-0.1152344,1.605957-0.2949219c0.5703125,2.7216797,1.2724609,6.1142578,1.746582,8.4609375  c0,0.0029297-0.0029297,0.0039063-0.0039063,0.0078125c-0.1933594,0.7177734-1.2016602,3.0205078-6.0825195,2.8222656  c-3.3979492-0.15625-5.1069336-2.6337891-5.7587891-3.8867188c0.4951172-0.1542969,0.8969727-0.3105469,1.1835938-0.4306641  c0.7226563,0.3779297,1.4189453,0.546875,2.0556641,0.546875c1.3017578,0,2.3603516-0.6171875,2.9067383-1.1542969  c0.375-0.3662109,0.3798828-0.9628906,0.0161133-1.3427734c-0.3657227-0.3798828-0.9692383-0.3886719-1.3505859-0.0302734  c-0.2539063,0.2412109-1.6269531,1.3623047-3.4814453-0.2011719c-1.0805664-0.9121094-0.1674805-3.2275391-0.1577148-3.2509766  c0.2011719-0.4882813-0.0307617-1.0478516-0.5175781-1.25c-0.4892578-0.2060547-1.0463867,0.0253906-1.2504883,0.5126953  c-0.0532227,0.1308594-1.1591797,2.8544922,0.0825195,4.7509766c-1.3955078,0.4511719-3.637207,0.9199219-5.4355469,0.0898438  c-1.2919922-0.5986328-2.1845703-1.8271484-2.6513672-3.6572266C3.5371094,30.5898438,3.6987305,29.0576172,4.5175781,28  c1.168457-1.5097656,3.3886719-1.7558594,4.0532227-1.7949219c0.2358398,0.5927734,0.6054688,1.1494141,1.144043,1.6582031  c0.1855469,0.1767578,0.4208984,0.2626953,0.6572266,0.2626953c0.2543945,0,0.5083008-0.1005859,0.6958008-0.2988281  c0.3637695-0.3857422,0.3461914-0.9921875-0.0380859-1.3544922c-1.7431641-1.6474609-0.2758789-3.3984375,0.0380859-3.7353516  c0.0112305-0.0117188,0.0151367-0.0283203,0.0253906-0.0410156c0.6513672,0.1308594,1.1367188,0.1416016,1.1943359,0.1416016  c0.0009766,0,0.0009766,0,0.0009766,0c0.5302734-0.0009766,0.9580078-0.4296875,0.956543-0.9589844  c-0.0009766-0.5273438-0.4291992-0.9550781-0.9575195-0.9550781c-0.0009766,0-0.0009766,0-0.0019531,0  c-0.0195313,0-1.9936523-0.0302734-2.9404297-1.2646484C8.7407227,18.8681641,8.6450195,17.6875,9.0625,16.1464844  c0.402832-1.4873047,1.1254883-2.4941406,2.1469727-2.9853516c1.9125977-0.9296875,4.3632813,0.1103516,4.3881836,0.1220703  c0.3173828,0.1376953,0.6777344,0.0351563,0.9511719-0.1728516c0.2753906-0.2099609,0.4106445-0.6044922,0.3647461-0.9462891  c-0.3623047-2.7099609,0.4853516-4.3271484,1.2612305-5.2080078c1.3442383-1.5292969,3.7563477-2.234375,6.9555664-2.2734375  c3.1459961,0.0195313,5.2036133,0.7714844,6.1132813,2.2324219c1.3867188,2.2304688-0.2084961,5.5732422-0.2241211,5.6064453  c-0.1674805,0.3447266-0.1142578,0.7578125,0.1362305,1.0449219c0.2509766,0.2929688,0.6469727,0.4042969,1.0136719,0.2890625  c1.2983398-0.4179688,2.3588867,1.3964844,2.3686523,1.4160156c0.2592773,0.4580078,0.8408203,0.6210938,1.3032227,0.3603516  c0.4599609-0.2597656,0.6235352-0.84375,0.3637695-1.3037109c-0.4868164-0.8632813-1.534668-2.0664063-2.9296875-2.3789063  c0.1704102-0.5625,0.3325195-1.2587891,0.4052734-2.0107422c2.2651367-1.5439453,4.6489258-0.4111328,5.6391602,0.1982422  c-0.5009766,0.7275391-0.8647461,1.5449219-1.0546875,2.4238281c-0.1113281,0.515625,0.2167969,1.0273438,0.7338867,1.1367188  c0.5146484,0.1142578,1.0268555-0.2148438,1.1381836-0.7324219c0.3779297-1.7490234,1.7060547-3.1777344,3.5522461-3.8212891  c2.1621094-0.7578125,4.5166016-0.2792969,6.4570313,1.3066406c3.3217773,2.71875,1.2231445,6.9804688,0.4682617,8.2734375  c-1.168457-0.5380859-2.4643555-0.6796875-3.3232422-0.6328125c-0.5273438,0.0273438-0.9311523,0.4755859-0.9057617,1.0039063  c0.0263672,0.5263672,0.5058594,0.9794922,1.0024414,0.9082031c0.1386719-0.0048828,3.4106445-0.1289063,3.925293,2.1845703  c0.6630859,2.9736328-0.5927734,3.7314453-0.6196289,3.7480469c-0.4765625,0.2324219-0.6748047,0.8037109-0.4433594,1.2792969  c0.1655273,0.3427734,0.5068359,0.5410156,0.8618164,0.5410156c0.140625,0,0.2827148-0.0302734,0.4169922-0.0957031  c0.0932617-0.046875,1.9169922-1.0058594,1.8691406-4.0429688c1.0605469,0.2832031,2.6303711,1.1572266,2.8344727,3.8505859  C56.5004883,31.0097656,53.1831055,32.3457031,53.0458984,32.3974609z"/></svg>