<svg xmlns="http://www.w3.org/2000/svg" viewBox="0 0 100 125" x="0px" y="0px"><title>Artboard 59</title><path d="M90,91H10a1,1,0,0,1-1-1V83a1,1,0,0,1,1-1H90a1,1,0,0,1,1,1v7A1,1,0,0,1,90,91ZM11,89H89V84H11Z"/><path d="M88,84H12a1,1,0,0,1-1-1V10a1,1,0,0,1,1-1H88a1,1,0,0,1,1,1V83A1,1,0,0,1,88,84ZM13,82H87V11H13Z"/><path d="M47,79H17a1,1,0,0,1-1-1V15a1,1,0,0,1,1-1H47a1,1,0,0,1,1,1V44a1,1,0,0,1-2,0V16H18V77H46V50a1,1,0,0,1,2,0V78A1,1,0,0,1,47,79Z"/><path d="M83,79H53a1,1,0,0,1-1-1V15a1,1,0,0,1,1-1H83a1,1,0,0,1,1,1V78A1,1,0,0,1,83,79ZM54,77H82V16H54Z"/><path d="M20.5,28.5a1,1,0,0,1-.71-1.71l7.42-7.42a1,1,0,0,1,1.41,1.41l-7.42,7.42A1,1,0,0,1,20.5,28.5Z"/><path d="M21.17,36.67A1,1,0,0,1,20.46,35L36.13,19.29a1,1,0,0,1,1.41,1.41L21.87,36.37A1,1,0,0,1,21.17,36.67Z"/><path d="M58.17,28.5a1,1,0,0,1-.71-1.71l7.42-7.42a1,1,0,0,1,1.41,1.41l-7.42,7.42A1,1,0,0,1,58.17,28.5Z"/><path d="M58.83,36.67A1,1,0,0,1,58.13,35L73.79,19.29a1,1,0,0,1,1.41,1.41L59.54,36.37A1,1,0,0,1,58.83,36.67Z"/><path d="M42.17,55.66a1,1,0,0,1-.71-.29l-2.83-2.83a1,1,0,0,1,0-1.41l8.49-8.49a1,1,0,0,1,1.41,0l2.83,2.83a1,1,0,0,1,0,1.41l-8.49,8.49A1,1,0,0,1,42.17,55.66Zm-1.42-3.83,1.42,1.42,7.07-7.07-1.42-1.42Z"/></svg>